<?xml version="1.0" encoding="utf-8"?>
<svg version="1.1" id="Layer_1" xmlns="http://www.w3.org/2000/svg" xmlns:xlink="http://www.w3.org/1999/xlink" x="0px" y="0px"
  viewBox="0 0 200 500" style="enable-background:new 0 0 200 500;" xml:space="preserve">
<style type="text/css">
  .st0{fill:#FFFFFF;}
</style>

<g transform="scale(-1, 1) translate(-200, 0)"> 
  <g>
        <rect x="96" y="116" width="13" height="333"/>
  </g>
  <g>
        <path d="M102.1,59.4c0,0-45.1,32.5-36,53.3c9.8,22.4,28.6,17.5,36,5.4c0,0,15.4,23.4,33.6,0.1
      C142.9,109,144.9,88.8,102.1,59.4z"/>
    <path d="M119,136C119,136,119,136,119,136c-7.1,0-12.8-4-16.7-7.4c-4.8,4.3-10.9,6.6-17.1,6.6c-10.5,0-19.7-7.2-25.1-19.7
      c-10.9-25,33.1-57.7,38.2-61.3l3.8-2.7l3.8,2.6c24.3,16.7,37.8,32.7,40.1,47.7c1.2,7.6-0.6,15.3-5.1,21
      C134.2,131.3,126.9,136,119,136z M101.9,105.8l5.7,8.7c1.4,2.1,6.2,7.5,11.4,7.5c4.5,0,8.8-4.2,11.5-7.8
      c2.2-2.9,3.1-6.4,2.4-10.4c-1.1-7.4-7.5-19.5-30.7-36.2c-16.2,12.5-34.5,32.3-30.1,42.5c3.3,7.5,7.9,11.7,13,11.7
      c4.3,0,8.7-2.8,11.3-7.1L101.9,105.8z"/>
  </g>
  <g>
    <polygon points="119.4,469.2 101.9,451.7 84.7,468.8 75.4,459.5 101.9,433 128.8,459.9"/>
  </g>
  <g>
    <polygon points="134.2,448 101.9,415.7 70.3,447.3 60.9,438 101.9,397 143.5,438.7"/>
  </g>
  <g>
    <polygon points="134.2,378.4 101.9,346.1 70.3,377.7 60.9,368.4 101.9,327.4 143.5,369.1"/>
  </g>
  <g>
    <polygon points="147.5,425.2 101.6,379.3 56.6,424.3 47.2,414.9 101.6,360.6 156.9,415.9"/>
  </g>
</g>

</svg>